<svg width="34" height="62" viewBox="0 0 34 62" fill="none" xmlns="http://www.w3.org/2000/svg">
<path d="M9.50769 51.943L14.229 61.8759H14.2945L19.0814 51.943L14.2945 47.1726L9.50769 51.943Z" fill="#2A2A2A"/>
<path d="M14.2949 4.82703C13.2458 5.34981 0 12.342 0 23.5166C0 33.0574 7.80319 47.5646 7.80319 47.5646L14.2949 41.0952L20.7867 47.5646C20.7867 47.5646 28.5898 33.1227 28.5898 23.5166C28.5243 12.342 15.2785 5.34981 14.2949 4.82703ZM18.5572 36.7169L14.2949 32.4692L10.0327 36.7169C9.83596 36.1287 6.95074 28.4177 6.95074 23.3859C6.95074 16.5897 13.7703 12.7995 14.2949 12.5381C14.8195 12.7341 21.6391 16.5897 21.6391 23.3859C21.6391 28.4177 18.7539 36.1287 18.5572 36.7169Z" fill="#FE5F5F"/>
<path d="M17.7052 23.0593C17.7052 24.889 16.197 26.3921 14.361 26.3921C12.5249 26.3921 11.0167 24.889 11.0167 23.0593C11.0167 21.2296 12.5249 19.7266 14.361 19.7266C16.197 19.7266 17.7052 21.2296 17.7052 23.0593Z" fill="#2A2A2A"/>
<path d="M28.5606 0.000137912L23.6921 4.85193L28.5606 9.70372L33.4291 4.85193L28.5606 0.000137912Z" fill="#2A2A2A"/>
</svg>
